<svg xmlns="http://www.w3.org/2000/svg"  viewBox="0 0 40 40" width="16px" height="16px"><path fill="#a6714e" d="M25.431,36.5c-3.886,0-3.931-0.753-3.931-0.786c0-1.049,0.747-3.214,3.056-3.214 c3.086,0,3.944,2.801,3.944,3.119C28.5,35.848,27.937,36.5,25.431,36.5z"/><path fill="#7a4f34" d="M24.556,33c2.461,0,3.311,2.016,3.43,2.536C27.833,35.656,27.235,36,25.431,36 c-2.416,0-3.203-0.304-3.424-0.429C22.069,34.85,22.583,33,24.556,33 M24.556,32C21.871,32,21,34.502,21,35.714 C21,36.704,22.981,37,25.431,37C28.235,37,29,36.217,29,35.619C29,34.959,27.906,32,24.556,32L24.556,32z"/><path fill="#a6714e" d="M14.569,36.5c-2.506,0-3.069-0.652-3.069-0.881c0-0.318,0.858-3.119,3.944-3.119 c2.309,0,3.056,2.166,3.056,3.214C18.5,35.747,18.455,36.5,14.569,36.5z"/><path fill="#7a4f34" d="M15.444,33c1.972,0,2.486,1.85,2.549,2.571C17.772,35.696,16.984,36,14.569,36 c-1.794,0-2.395-0.34-2.552-0.462C12.147,34.984,13.003,33,15.444,33 M15.444,32C12.094,32,11,34.959,11,35.619 C11,36.217,11.765,37,14.569,37C17.019,37,19,36.704,19,35.714C19,34.502,18.129,32,15.444,32L15.444,32z"/><path fill="#a6714e" d="M20,33.5c-3.214,0-6.5-0.857-6.5-7.214c0-5.67,2.733-9.786,6.5-9.786s6.5,4.115,6.5,9.786 C26.5,32.68,23.026,33.5,20,33.5z"/><path fill="#7a4f34" d="M20,17c3.477,0,6,3.905,6,9.286C26,31.055,24.262,33,20,33c-3.116,0-6-0.813-6-6.714 C14,20.905,16.523,17,20,17 M20,16c-3.866,0-7,4.043-7,10.286C13,32.528,16.134,34,20,34s7-1.473,7-7.714 C27,20.045,23.866,16,20,16L20,16z"/><path fill="#f5ce85" d="M20,27.667c-2.209,0-4-0.479-4-4.364S18.557,17,20,17s4,2.42,4,6.303S22.209,27.667,20,27.667z"/><path fill="#a6714e" d="M6.5 5.5A6 6 0 1 0 6.5 17.5A6 6 0 1 0 6.5 5.5Z"/><path fill="#7a4f34" d="M6.5,6C9.533,6,12,8.467,12,11.5S9.533,17,6.5,17S1,14.533,1,11.5S3.467,6,6.5,6 M6.5,5 C2.91,5,0,7.91,0,11.5S2.91,18,6.5,18s6.5-2.91,6.5-6.5S10.09,5,6.5,5L6.5,5z"/><path fill="#a6714e" d="M33.5 5.5A6 6 0 1 0 33.5 17.5A6 6 0 1 0 33.5 5.5Z"/><path fill="#7a4f34" d="M33.5,6c3.033,0,5.5,2.467,5.5,5.5S36.533,17,33.5,17S28,14.533,28,11.5S30.467,6,33.5,6 M33.5,5 C29.91,5,27,7.91,27,11.5s2.91,6.5,6.5,6.5s6.5-2.91,6.5-6.5S37.09,5,33.5,5L33.5,5z"/><path fill="#f5ce85" d="M20,20.5c-6.126,0-9.5-2.841-9.5-8s3.374-8,9.5-8s9.5,2.841,9.5,8S26.126,20.5,20,20.5z"/><path fill="#7a4f34" d="M20,5c5.888,0,9,2.593,9,7.5S25.888,20,20,20s-9-2.593-9-7.5S14.112,5,20,5 M20,4 c-7.281,0-10,3.805-10,8.5S12.717,21,20,21s10-3.805,10-8.5S27.281,4,20,4L20,4z"/><path fill="#fff" d="M24 10A2 2 0 1 0 24 14A2 2 0 1 0 24 10Z"/><path fill="#36404d" d="M24 11A1.5 1.5 0 1 0 24 14A1.5 1.5 0 1 0 24 11Z"/><path fill="#fff" d="M24.633 10.6A0.5 0.5 0 1 0 24.633 11.6A0.5 0.5 0 1 0 24.633 10.6Z"/><path fill="#66798f" d="M18.752 16L20 14.752 21.248 16z"/><path fill="#c74343" d="M21.739,16.724c0,0-0.895,1.276-1.739,1.276s-1.739-1.276-1.739-1.276s0.908,0.492,1.739,0.492 S21.739,16.724,21.739,16.724z"/><path fill="none" stroke="#7a4f34" stroke-linecap="round" stroke-linejoin="round" stroke-miterlimit="10" d="M25.635,9	c0,0-0.778-0.5-2.135-0.5"/><path fill="#fff" d="M16 10A2 2 0 1 0 16 14A2 2 0 1 0 16 10Z"/><path fill="#36404d" d="M16 11A1.5 1.5 0 1 0 16 14A1.5 1.5 0 1 0 16 11Z"/><path fill="#fff" d="M16.633 10.6A0.5 0.5 0 1 0 16.633 11.6A0.5 0.5 0 1 0 16.633 10.6Z"/><path fill="none" stroke="#7a4f34" stroke-linecap="round" stroke-linejoin="round" stroke-miterlimit="10" d="M14.365,9	c0,0,0.778-0.5,2.135-0.5"/><g><path fill="#a6714e" d="M30,27.5c-0.827,0-1.5-0.673-1.5-1.5c0-1.259-1.35-2.987-2.435-4.376 c-0.271-0.346-0.58-0.743-0.799-1.053C27.018,20.879,31.5,22.257,31.5,26C31.5,26.827,30.827,27.5,30,27.5z"/><path fill="#7a4f34" d="M26.529,21.405C28.411,22.007,31,23.361,31,26c0,0.551-0.449,1-1,1s-1-0.449-1-1 C29,24.696,27.934,23.208,26.529,21.405 M24.667,20C23.562,20,28,24,28,26c0,1.105,0.895,2,2,2s2-0.895,2-2 C32,21.333,25.771,20,24.667,20L24.667,20z"/></g><g><path fill="#a6714e" d="M10,27.5c-0.827,0-1.5-0.673-1.5-1.5c0-3.743,4.482-5.121,6.233-5.429 c-0.219,0.311-0.528,0.707-0.799,1.053C12.85,23.013,11.5,24.741,11.5,26C11.5,26.827,10.827,27.5,10,27.5z"/><path fill="#7a4f34" d="M13.471,21.405C12.066,23.208,11,24.696,11,26c0,0.551-0.449,1-1,1s-1-0.449-1-1 C9,23.361,11.589,22.007,13.471,21.405 M15.333,20C14.229,20,8,21.333,8,26c0,1.105,0.895,2,2,2s2-0.895,2-2 C12,24,16.438,20,15.333,20L15.333,20z"/></g></svg>